<svg xmlns="http://www.w3.org/2000/svg" width="64" height="64" viewBox="0 0 64 64">
  <defs>
    <radialGradient id="ocean" cx="35%" cy="30%" r="70%">
      <stop offset="0%" stop-color="#7dd3fc"/>
      <stop offset="55%" stop-color="#2563eb"/>
      <stop offset="100%" stop-color="#0b2a6b"/>
    </radialGradient>
    <radialGradient id="shine" cx="28%" cy="28%" r="45%">
      <stop offset="0%" stop-color="rgba(255,255,255,0.95)"/>
      <stop offset="20%" stop-color="rgba(255,255,255,0.35)"/>
      <stop offset="45%" stop-color="rgba(255,255,255,0)"/>
    </radialGradient>
  </defs>

  <circle cx="32" cy="32" r="28" fill="url(#ocean)"/>

  <!-- continents (stylized) -->
  <path d="M39 22c5 2 8 6 6 10-2 4-8 6-13 4-5-2-7-6-5-10 2-4 7-6 12-4z" fill="#22c55e" opacity="0.95"/>
  <path d="M23 36c4-1 7 1 9 4 2 3 1 7-3 9-4 2-9 0-11-4-2-4 1-8 5-9z" fill="#16a34a" opacity="0.92"/>
  <path d="M26 18c3-2 6-1 8 1 2 2 1 5-2 7-3 2-7 1-9-2-2-3 0-5 3-6z" fill="#22c55e" opacity="0.85"/>

  <!-- highlight -->
  <circle cx="32" cy="32" r="28" fill="url(#shine)"/>

  <!-- subtle rim -->
  <circle cx="32" cy="32" r="28" fill="none" stroke="rgba(255,255,255,0.55)" stroke-width="2"/>
</svg>
